<svg xmlns="http://www.w3.org/2000/svg" width="1024" height="1140" viewBox="0 0 1024 1140"><style>@font-face{font-family:"BC";src:url("../fonts/BarlowCondensed_900Black_Italic.ttf")}@font-face{font-family:"B6";src:url("../fonts/Barlow_600SemiBold.ttf")}</style><defs>
  <pattern id="schk" width="51.0" height="51.0" patternUnits="userSpaceOnUse" patternTransform="rotate(22.5 512 420)"><rect width="51.0" height="51.0" fill="#F4F6FA"/><rect width="25.5" height="25.5" fill="#0B0F19"/><rect x="25.5" y="25.5" width="25.5" height="25.5" fill="#0B0F19"/></pattern>
  <radialGradient id="srim" cx="0.5" cy="0.4" r="0.6"><stop offset="0" stop-color="#2B3552"/><stop offset="1" stop-color="#141A2B"/></radialGradient>
  <radialGradient id="sshade" cx="0.5" cy="0.5" r="0.5"><stop offset="0.72" stop-color="#000000" stop-opacity="0"/><stop offset="1" stop-color="#000000" stop-opacity="0.28"/></radialGradient>
</defs><circle cx="512" cy="435.0" r="306.0" fill="#000000" opacity="0.35"/><circle cx="512" cy="420" r="300" fill="url(#srim)" stroke="#0B0F19" stroke-width="9.0"/><path d="M512.0 420.0 L413.3 181.6 A258.0 258.0 0 0 1 610.7 181.6Z" fill="#FF2D46"/><path d="M512.0 420.0 L610.7 181.6 A258.0 258.0 0 0 1 750.4 321.3Z" fill="#F4F6FA"/><path d="M512.0 420.0 L750.4 321.3 A258.0 258.0 0 0 1 750.4 518.7Z" fill="#FFC940"/><path d="M512.0 420.0 L750.4 518.7 A258.0 258.0 0 0 1 610.7 658.4Z" fill="url(#schk)"/><path d="M512.0 420.0 L610.7 658.4 A258.0 258.0 0 0 1 413.3 658.4Z" fill="#3BA7FF"/><path d="M512.0 420.0 L413.3 658.4 A258.0 258.0 0 0 1 273.6 518.7Z" fill="#F4F6FA"/><path d="M512.0 420.0 L273.6 518.7 A258.0 258.0 0 0 1 273.6 321.3Z" fill="#24D17E"/><path d="M512.0 420.0 L273.6 321.3 A258.0 258.0 0 0 1 413.3 181.6Z" fill="url(#schk)"/><line x1="512" y1="420" x2="413.3" y2="181.6" stroke="#0B0F19" stroke-width="5.4"/><line x1="512" y1="420" x2="610.7" y2="181.6" stroke="#0B0F19" stroke-width="5.4"/><line x1="512" y1="420" x2="750.4" y2="321.3" stroke="#0B0F19" stroke-width="5.4"/><line x1="512" y1="420" x2="750.4" y2="518.7" stroke="#0B0F19" stroke-width="5.4"/><line x1="512" y1="420" x2="610.7" y2="658.4" stroke="#0B0F19" stroke-width="5.4"/><line x1="512" y1="420" x2="413.3" y2="658.4" stroke="#0B0F19" stroke-width="5.4"/><line x1="512" y1="420" x2="273.6" y2="518.7" stroke="#0B0F19" stroke-width="5.4"/><line x1="512" y1="420" x2="273.6" y2="321.3" stroke="#0B0F19" stroke-width="5.4"/><path d="M512.0 420.0 L254.5 403.8 A258.0 258.0 0 0 1 607.0 180.1Z" fill="#FFFFFF" opacity="0.10"/><circle cx="512" cy="420" r="258.0" fill="url(#sshade)"/><circle cx="566.4" cy="146.4" r="10.5" fill="#FFF1B8"/><circle cx="667.0" cy="188.0" r="10.5" fill="#C9A84A"/><circle cx="744.0" cy="265.0" r="10.5" fill="#FFF1B8"/><circle cx="785.6" cy="365.6" r="10.5" fill="#C9A84A"/><circle cx="785.6" cy="474.4" r="10.5" fill="#FFF1B8"/><circle cx="744.0" cy="575.0" r="10.5" fill="#C9A84A"/><circle cx="667.0" cy="652.0" r="10.5" fill="#FFF1B8"/><circle cx="566.4" cy="693.6" r="10.5" fill="#C9A84A"/><circle cx="457.6" cy="693.6" r="10.5" fill="#FFF1B8"/><circle cx="357.0" cy="652.0" r="10.5" fill="#C9A84A"/><circle cx="280.0" cy="575.0" r="10.5" fill="#FFF1B8"/><circle cx="238.4" cy="474.4" r="10.5" fill="#C9A84A"/><circle cx="238.4" cy="365.6" r="10.5" fill="#FFF1B8"/><circle cx="280.0" cy="265.0" r="10.5" fill="#C9A84A"/><circle cx="357.0" cy="188.0" r="10.5" fill="#FFF1B8"/><circle cx="457.6" cy="146.4" r="10.5" fill="#C9A84A"/><circle cx="512" cy="420" r="97.4" fill="#0B0F19"/><clipPath id="shub"><circle cx="512" cy="420" r="78.3"/></clipPath><g clip-path="url(#shub)"><rect x="433.7" y="341.7" width="39.6" height="39.6" fill="#F4F6FA"/><rect x="472.8" y="341.7" width="39.6" height="39.6" fill="#0B0F19"/><rect x="512.0" y="341.7" width="39.6" height="39.6" fill="#F4F6FA"/><rect x="551.1" y="341.7" width="39.6" height="39.6" fill="#0B0F19"/><rect x="433.7" y="380.8" width="39.6" height="39.6" fill="#0B0F19"/><rect x="472.8" y="380.8" width="39.6" height="39.6" fill="#F4F6FA"/><rect x="512.0" y="380.8" width="39.6" height="39.6" fill="#0B0F19"/><rect x="551.1" y="380.8" width="39.6" height="39.6" fill="#F4F6FA"/><rect x="433.7" y="420.0" width="39.6" height="39.6" fill="#F4F6FA"/><rect x="472.8" y="420.0" width="39.6" height="39.6" fill="#0B0F19"/><rect x="512.0" y="420.0" width="39.6" height="39.6" fill="#F4F6FA"/><rect x="551.1" y="420.0" width="39.6" height="39.6" fill="#0B0F19"/><rect x="433.7" y="459.1" width="39.6" height="39.6" fill="#0B0F19"/><rect x="472.8" y="459.1" width="39.6" height="39.6" fill="#F4F6FA"/><rect x="512.0" y="459.1" width="39.6" height="39.6" fill="#0B0F19"/><rect x="551.1" y="459.1" width="39.6" height="39.6" fill="#F4F6FA"/></g><circle cx="512" cy="420" r="78.3" fill="none" stroke="#F4F6FA" stroke-width="6.0"/><path d="M470.0 109.5 A42.0 42.0 0 1 1 554.0 109.5 L512.0 204.0Z" fill="#000000" opacity="0.35" transform="translate(0 7.5)"/><path d="M470.0 109.5 A42.0 42.0 0 1 1 554.0 109.5 L512.0 204.0Z" fill="#FF2D46" stroke="#0B0F19" stroke-width="6.0"/><circle cx="512" cy="109.5" r="17.6" fill="#FFFFFF"/>
<text x="512" y="930" font-family="BC" font-size="150" fill="#F4F6FA" text-anchor="middle" letter-spacing="2">CHEQUERED</text>
<text x="512" y="1080" font-family="BC" font-size="150" fill="#FF2D46" text-anchor="middle" letter-spacing="2">LIVES</text></svg>